<?xml version="1.0" encoding="UTF-8" standalone="no"?>
<!-- Created with Inkscape (http://www.inkscape.org/) -->

<svg
   xmlns:dc="http://purl.org/dc/elements/1.1/"
   xmlns:cc="http://creativecommons.org/ns#"
   xmlns:rdf="http://www.w3.org/1999/02/22-rdf-syntax-ns#"
   xmlns:svg="http://www.w3.org/2000/svg"
   xmlns="http://www.w3.org/2000/svg"
   xmlns:sodipodi="http://sodipodi.sourceforge.net/DTD/sodipodi-0.dtd"
   xmlns:inkscape="http://www.inkscape.org/namespaces/inkscape"
   width="210mm"
   height="297mm"
   viewBox="0 0 210 297"
   version="1.1"
   id="svg5251"
   sodipodi:docname="apparition_nav_logo.svg"
   inkscape:version="0.92.4 (5da689c313, 2019-01-14)">
  <defs
     id="defs5245">
    <clipPath
       clipPathUnits="userSpaceOnUse"
       id="clipPath842">
      <rect
         style="opacity:0.194;fill:#0000ff;fill-rule:evenodd;stroke-width:3.20501995"
         id="rect844"
         width="4001.9839"
         height="3254.3406"
         x="-3004.2407"
         y="-2382.0007"
         transform="matrix(-0.98275948,0.18488863,-0.95798142,-0.28683027,0,0)" />
    </clipPath>
    <clipPath
       clipPathUnits="userSpaceOnUse"
       id="clipPath846">
      <rect
         style="opacity:0.194;fill:#0000ff;fill-rule:evenodd;stroke-width:3.20501995"
         id="rect848"
         width="4001.9839"
         height="3254.3406"
         x="-3094.9744"
         y="-2288.9214"
         transform="matrix(-0.98275948,-0.18488863,-0.95798142,0.28683027,0,0)" />
    </clipPath>
    <clipPath
       clipPathUnits="userSpaceOnUse"
       id="clipPath850">
      <rect
         style="opacity:0.194;fill:#0000ff;fill-rule:evenodd;stroke-width:3.20501995"
         id="rect852"
         width="4001.9839"
         height="3254.3406"
         x="-2262.3364"
         y="-2382.0007"
         transform="matrix(0.98275948,-0.18488863,-0.95798142,-0.28683027,0,0)" />
    </clipPath>
    <clipPath
       clipPathUnits="userSpaceOnUse"
       id="clipPath854">
      <rect
         style="opacity:0.194;fill:#0000ff;fill-rule:evenodd;stroke-width:3.20501995"
         id="rect856"
         width="4001.9839"
         height="3254.3406"
         x="-2171.6042"
         y="-2288.9214"
         transform="matrix(0.98275948,0.18488863,-0.95798142,0.28683027,0,0)" />
    </clipPath>
    <clipPath
       clipPathUnits="userSpaceOnUse"
       id="clipPath858">
      <rect
         style="opacity:0.194;fill:#0000ff;fill-rule:evenodd;stroke-width:2.1713984"
         id="rect860"
         width="5018.7461"
         height="1191.134"
         x="-2636.0938"
         y="-778.32605"
         transform="scale(1,-1)" />
    </clipPath>
    <clipPath
       clipPathUnits="userSpaceOnUse"
       id="clipPath862">
      <rect
         style="opacity:0.194;fill:#0000ff;fill-rule:evenodd;stroke-width:2.1713984"
         id="rect864"
         width="5018.7461"
         height="1191.134"
         x="-2636.0938"
         y="-734.85266" />
    </clipPath>
    <clipPath
       clipPathUnits="userSpaceOnUse"
       id="clipPath866">
      <rect
         style="opacity:0.194;fill:#0000ff;fill-rule:evenodd;stroke-width:0.26458332"
         id="rect868"
         width="297.92084"
         height="297.92084"
         x="874.71246"
         y="454.16248" />
    </clipPath>
    <clipPath
       clipPathUnits="userSpaceOnUse"
       id="clipPath870">
      <rect
         style="opacity:0.194;fill:#0000ff;fill-rule:evenodd;stroke-width:0.26458332"
         id="rect872"
         width="297.92084"
         height="297.92084"
         x="874.71246"
         y="454.16248" />
    </clipPath>
    <clipPath
       clipPathUnits="userSpaceOnUse"
       id="clipPath874">
      <rect
         style="opacity:0.194;fill:#0000ff;fill-rule:evenodd;stroke-width:0.26458332"
         id="rect876"
         width="297.92084"
         height="297.92084"
         x="874.71246"
         y="454.16248" />
    </clipPath>
    <clipPath
       clipPathUnits="userSpaceOnUse"
       id="clipPath878">
      <rect
         style="opacity:0.194;fill:#0000ff;fill-rule:evenodd;stroke-width:0.99999994"
         id="rect880"
         width="1126"
         height="1126"
         x="3305.9998"
         y="1716.5195" />
    </clipPath>
    <clipPath
       clipPathUnits="userSpaceOnUse"
       id="clipPath882">
      <rect
         style="opacity:0.194;fill:#0000ff;fill-rule:evenodd;stroke-width:3.20501995"
         id="rect884"
         width="4001.9839"
         height="3254.3406"
         x="-1388.0168"
         y="-2679.1406"
         transform="matrix(-0.98275948,0.18488863,-0.95798142,-0.28683027,0,0)" />
    </clipPath>
    <clipPath
       clipPathUnits="userSpaceOnUse"
       id="clipPath886">
      <rect
         style="opacity:0.194;fill:#0000ff;fill-rule:evenodd;stroke-width:3.20501995"
         id="rect888"
         width="4001.9839"
         height="3254.3406"
         x="-1478.7504"
         y="-2586.0613"
         transform="matrix(-0.98275948,-0.18488863,-0.95798142,0.28683027,0,0)" />
    </clipPath>
    <clipPath
       clipPathUnits="userSpaceOnUse"
       id="clipPath890">
      <rect
         style="opacity:0.194;fill:#0000ff;fill-rule:evenodd;stroke-width:3.20501995"
         id="rect892"
         width="4001.9839"
         height="3254.3406"
         x="-646.11255"
         y="-2679.1406"
         transform="matrix(0.98275948,-0.18488863,-0.95798142,-0.28683027,0,0)" />
    </clipPath>
    <clipPath
       clipPathUnits="userSpaceOnUse"
       id="clipPath894">
      <rect
         style="opacity:0.194;fill:#0000ff;fill-rule:evenodd;stroke-width:3.20501995"
         id="rect896"
         width="4001.9839"
         height="3254.3406"
         x="-555.38037"
         y="-2586.0613"
         transform="matrix(0.98275948,0.18488863,-0.95798142,0.28683027,0,0)" />
    </clipPath>
    <clipPath
       clipPathUnits="userSpaceOnUse"
       id="clipPath898">
      <rect
         style="opacity:0.194;fill:#0000ff;fill-rule:evenodd;stroke-width:2.1713984"
         id="rect900"
         width="5018.7461"
         height="1191.134"
         x="-609.24463"
         y="-887.08337"
         transform="scale(1,-1)" />
    </clipPath>
    <clipPath
       clipPathUnits="userSpaceOnUse"
       id="clipPath902">
      <rect
         style="opacity:0.194;fill:#0000ff;fill-rule:evenodd;stroke-width:2.1713984"
         id="rect904"
         width="5018.7461"
         height="1191.134"
         x="-609.24463"
         y="-843.60999" />
    </clipPath>
    <clipPath
       clipPathUnits="userSpaceOnUse"
       id="clipPath906">
      <rect
         style="opacity:0.194;fill:#0000ff;fill-rule:evenodd;stroke-width:0.26458332"
         id="rect908"
         width="297.92084"
         height="297.92084"
         x="874.71246"
         y="454.16248" />
    </clipPath>
    <clipPath
       clipPathUnits="userSpaceOnUse"
       id="clipPath910">
      <rect
         style="opacity:0.194;fill:#0000ff;fill-rule:evenodd;stroke-width:0.26458332"
         id="rect912"
         width="297.92084"
         height="297.92084"
         x="874.71246"
         y="454.16248" />
    </clipPath>
    <clipPath
       clipPathUnits="userSpaceOnUse"
       id="clipPath914">
      <rect
         style="opacity:0.194;fill:#0000ff;fill-rule:evenodd;stroke-width:0.26458332"
         id="rect916"
         width="297.92084"
         height="297.92084"
         x="874.71246"
         y="454.16248" />
    </clipPath>
    <clipPath
       clipPathUnits="userSpaceOnUse"
       id="clipPath918">
      <rect
         style="opacity:0.194;fill:#0000ff;fill-rule:evenodd;stroke-width:0.26458332"
         id="rect920"
         width="297.92084"
         height="297.92084"
         x="874.71246"
         y="454.16248" />
    </clipPath>
  </defs>
  <sodipodi:namedview
     id="base"
     pagecolor="#ffffff"
     bordercolor="#666666"
     borderopacity="1.0"
     inkscape:pageopacity="0.0"
     inkscape:pageshadow="2"
     inkscape:zoom="1"
     inkscape:cx="3767.2642"
     inkscape:cy="-1165.1477"
     inkscape:document-units="px"
     inkscape:current-layer="layer1"
     showgrid="false"
     showborder="false"
     showguides="false"
     inkscape:snap-intersection-paths="true"
     inkscape:object-nodes="true"
     inkscape:snap-smooth-nodes="true"
     inkscape:snap-global="true"
     inkscape:window-width="1920"
     inkscape:window-height="986"
     inkscape:window-x="-11"
     inkscape:window-y="-11"
     inkscape:window-maximized="1"
     inkscape:object-paths="true"
     inkscape:snap-nodes="false" />
  <metadata
     id="metadata5248">
    <rdf:RDF>
      <cc:Work
         rdf:about="">
        <dc:format>image/svg+xml</dc:format>
        <dc:type
           rdf:resource="http://purl.org/dc/dcmitype/StillImage" />
        <dc:title />
      </cc:Work>
    </rdf:RDF>
  </metadata>
  <g
     inkscape:label="Layer 1"
     inkscape:groupmode="layer"
     id="layer1">
    <rect
       inkscape:export-ydpi="9.6000004"
       inkscape:export-xdpi="9.6000004"
       inkscape:export-filename="C:\Users\James McGauran\Desktop\path6642.png"
       style="opacity:0.29500002;fill:none;fill-rule:evenodd;stroke:none;stroke-width:0.79374999;stroke-miterlimit:4;stroke-dasharray:none"
       id="rect962"
       width="264.58334"
       height="264.58334"
       x="880.46619"
       y="475.50507"
       clip-path="url(#clipPath918)" />
    <path
       inkscape:export-ydpi="9.6000004"
       inkscape:export-xdpi="9.6000004"
       inkscape:export-filename="C:\Users\James McGauran\Desktop\path6642.png"
       style="opacity:1;fill:none;fill-opacity:0.82352941;stroke:#000000;stroke-width:5.29166651;stroke-linecap:round;stroke-linejoin:round;stroke-miterlimit:4;stroke-dasharray:none;stroke-opacity:1"
       d="m 950.06388,643.76293 c -5.8497,0 -11.1226,3.06733 -14.937,7.97921 -0.2253,0.29005 -0.4645,0.56232 -0.6792,0.86515 -10.796,11.00604 -21.098,17.56767 -30.7461,18.2424 9.8745,0.69056 20.4341,7.5479 31.507,19.02496 0.6732,0.69773 1.3477,1.40803 2.0246,2.13959 v -0.14299 c 3.5518,3.48794 8.0008,5.56362 12.8307,5.56362 4.8299,-1e-5 9.279,-2.07579 12.8309,-5.56389 v 0.14326 c 0.61,-0.65931 1.2178,-1.29629 1.8248,-1.92815 11.1456,-11.60177 21.7731,-18.5417 31.70679,-19.2364 -9.64829,-0.67475 -19.95069,-7.23654 -30.74689,-18.24295 -0.2812,-0.39647 -0.5902,-0.75815 -0.8893,-1.13257 -3.7974,-4.75446 -8.9837,-7.71124 -14.7263,-7.71124 z"
       id="path964"
       inkscape:connector-curvature="0"
       clip-path="url(#clipPath914)" />
    <path
       inkscape:export-ydpi="9.6000004"
       inkscape:export-xdpi="9.6000004"
       inkscape:export-filename="C:\Users\James McGauran\Desktop\path6642.png"
       style="opacity:1;fill:none;fill-opacity:0.82352941;stroke:#000000;stroke-width:5.29166651;stroke-linecap:round;stroke-linejoin:round;stroke-miterlimit:4;stroke-dasharray:none;stroke-opacity:1"
       d="m 935.12688,651.74214 c -0.1902,0.91318 -0.379,1.82856 -0.5418,2.77973 -0.2114,1.23535 -0.3995,2.50148 -0.5622,3.7948 -0.1628,1.29331 -0.3005,2.61393 -0.4118,3.95829 -0.1113,1.34436 -0.1963,2.71252 -0.2533,4.101 -0.057,1.38848 -0.086,2.79726 -0.086,4.22294 0,1.42568 0.029,2.83445 0.086,4.22293 0.057,1.38848 0.142,2.75665 0.2533,4.10101 0.1113,1.34436 0.249,2.66498 0.4118,3.95829 0.1627,1.29332 0.3508,2.55945 0.5622,3.7948 0.1873,1.09454 0.4001,2.1548 0.6235,3.19872 0.6732,0.69773 1.3477,1.40803 2.0246,2.13959 v -0.14299 c 3.5518,3.48794 8.0008,5.56362 12.8307,5.56362 4.8299,-1e-5 9.279,-2.07579 12.8309,-5.56389 v 0.14326 c 0.61,-0.65931 1.2178,-1.29629 1.8248,-1.92815 0.2407,-1.10917 0.465,-2.24328 0.6648,-3.41016 0.2114,-1.23535 0.3992,-2.50148 0.562,-3.7948 0.1627,-1.29331 0.3004,-2.61393 0.4117,-3.95829 0.1114,-1.34436 0.1963,-2.71253 0.2533,-4.10101 0.057,-1.38848 0.086,-2.79725 0.086,-4.22293 0,-1.42568 -0.029,-2.83446 -0.086,-4.22294 -0.057,-1.38848 -0.1419,-2.75664 -0.2533,-4.101 -0.1113,-1.34436 -0.249,-2.66498 -0.4117,-3.95829 -0.1628,-1.29332 -0.3506,-2.55945 -0.562,-3.7948 -0.1785,-1.04286 -0.3828,-2.05069 -0.5942,-3.0477 -3.7974,-4.75446 -8.9837,-7.71124 -14.7263,-7.71124 -5.8497,0 -11.1226,3.06733 -14.937,7.97921 z"
       id="path966"
       inkscape:connector-curvature="0"
       clip-path="url(#clipPath910)" />
    <path
       inkscape:export-ydpi="9.6000004"
       inkscape:export-xdpi="9.6000004"
       inkscape:export-filename="C:\Users\James McGauran\Desktop\path6642.png"
       sodipodi:nodetypes="sssss"
       inkscape:connector-curvature="0"
       id="path968"
       d="m 957.98968,670.59889 c 0,11.21375 -3.584,20.30429 -8.005,20.30429 -4.421,0 -8.005,-9.09054 -8.005,-20.30429 0,-11.21375 3.584,-20.30428 8.005,-20.30428 4.421,0 8.005,9.09053 8.005,20.30428 z"
       style="opacity:1;fill:#000000;fill-opacity:0.9948454;stroke:#000000;stroke-width:1.41882205;stroke-linecap:round;stroke-linejoin:round;stroke-miterlimit:4;stroke-dasharray:none;stroke-opacity:1"
       clip-path="url(#clipPath906)" />
    <path
       inkscape:export-ydpi="9.6000004"
       inkscape:export-xdpi="9.6000004"
       inkscape:export-filename="C:\Users\James McGauran\Desktop\path6642.png"
       sodipodi:type="star"
       style="opacity:1;fill:#000000;fill-opacity:0.9948454;stroke:#000000;stroke-width:43.42796707;stroke-linecap:round;stroke-linejoin:round;stroke-miterlimit:4;stroke-dasharray:none;stroke-opacity:1"
       id="path972"
       sodipodi:sides="3"
       sodipodi:cx="666.22083"
       sodipodi:cy="-131.62502"
       sodipodi:r1="52.411549"
       sodipodi:r2="26.205772"
       sodipodi:arg1="0.52359878"
       sodipodi:arg2="1.5707963"
       inkscape:flatsided="true"
       inkscape:rounded="0"
       inkscape:randomized="0"
       d="m 711.61056,-105.41924 -90.77947,0 45.38974,-78.61732 z"
       inkscape:transform-center-x="3.574668e-06"
       inkscape:transform-center-y="-6.1114141"
       transform="matrix(0.05936161,0,0,0.2501153,910.87818,665.16222)"
       clip-path="url(#clipPath902)" />
    <path
       inkscape:export-ydpi="9.6000004"
       inkscape:export-xdpi="9.6000004"
       inkscape:export-filename="C:\Users\James McGauran\Desktop\path6642.png"
       transform="matrix(0.05936161,0,0,-0.2501153,910.87818,676.03558)"
       inkscape:transform-center-y="6.1114128"
       inkscape:transform-center-x="3.574668e-06"
       d="m 711.61056,-105.41924 -90.77947,0 45.38974,-78.61732 z"
       inkscape:randomized="0"
       inkscape:rounded="0"
       inkscape:flatsided="true"
       sodipodi:arg2="1.5707963"
       sodipodi:arg1="0.52359878"
       sodipodi:r2="26.205772"
       sodipodi:r1="52.411549"
       sodipodi:cy="-131.62502"
       sodipodi:cx="666.22083"
       sodipodi:sides="3"
       id="path974"
       style="opacity:1;fill:#000000;fill-opacity:0.9948454;stroke:#000000;stroke-width:43.42796707;stroke-linecap:round;stroke-linejoin:round;stroke-miterlimit:4;stroke-dasharray:none;stroke-opacity:1"
       sodipodi:type="star"
       clip-path="url(#clipPath898)" />
    <path
       inkscape:export-ydpi="9.6000004"
       inkscape:export-xdpi="9.6000004"
       inkscape:export-filename="C:\Users\James McGauran\Desktop\path6642.png"
       transform="matrix(0.04651929,-0.03687488,0.15536929,0.19600523,916.05678,690.90521)"
       inkscape:transform-center-y="-6.1114141"
       inkscape:transform-center-x="3.574668e-06"
       d="m 711.61056,-105.41924 -90.77947,0 45.38974,-78.61732 z"
       inkscape:randomized="0"
       inkscape:rounded="0"
       inkscape:flatsided="true"
       sodipodi:arg2="1.5707963"
       sodipodi:arg1="0.52359878"
       sodipodi:r2="26.205772"
       sodipodi:r1="52.411549"
       sodipodi:cy="-131.62502"
       sodipodi:cx="666.22083"
       sodipodi:sides="3"
       id="path976"
       style="opacity:1;fill:#000000;fill-opacity:0.9948454;stroke:#000000;stroke-width:43.42796707;stroke-linecap:round;stroke-linejoin:round;stroke-miterlimit:4;stroke-dasharray:none;stroke-opacity:1"
       sodipodi:type="star"
       clip-path="url(#clipPath894)" />
    <path
       inkscape:export-ydpi="9.6000004"
       inkscape:export-xdpi="9.6000004"
       inkscape:export-filename="C:\Users\James McGauran\Desktop\path6642.png"
       sodipodi:type="star"
       style="opacity:1;fill:#000000;fill-opacity:0.9948454;stroke:#000000;stroke-width:43.42796707;stroke-linecap:round;stroke-linejoin:round;stroke-miterlimit:4;stroke-dasharray:none;stroke-opacity:1"
       id="path978"
       sodipodi:sides="3"
       sodipodi:cx="666.22083"
       sodipodi:cy="-131.62502"
       sodipodi:r1="52.411549"
       sodipodi:r2="26.205772"
       sodipodi:arg1="0.52359878"
       sodipodi:arg2="1.5707963"
       inkscape:flatsided="true"
       inkscape:rounded="0"
       inkscape:randomized="0"
       d="m 711.61056,-105.41924 -90.77947,0 45.38974,-78.61732 z"
       inkscape:transform-center-x="3.574668e-06"
       inkscape:transform-center-y="6.1114128"
       transform="matrix(0.04651929,-0.03687488,-0.15536929,-0.19600523,922.81118,699.42622)"
       clip-path="url(#clipPath890)" />
    <path
       inkscape:export-ydpi="9.6000004"
       inkscape:export-xdpi="9.6000004"
       inkscape:export-filename="C:\Users\James McGauran\Desktop\path6642.png"
       sodipodi:type="star"
       style="opacity:1;fill:#000000;fill-opacity:0.9948454;stroke:#000000;stroke-width:43.42796707;stroke-linecap:round;stroke-linejoin:round;stroke-miterlimit:4;stroke-dasharray:none;stroke-opacity:1"
       id="path980"
       sodipodi:sides="3"
       sodipodi:cx="666.22083"
       sodipodi:cy="-131.62502"
       sodipodi:r1="52.411549"
       sodipodi:r2="26.205772"
       sodipodi:arg1="0.52359878"
       sodipodi:arg2="1.5707963"
       inkscape:flatsided="true"
       inkscape:rounded="0"
       inkscape:randomized="0"
       d="m 711.61056,-105.41924 -90.77947,0 45.38974,-78.61732 z"
       inkscape:transform-center-x="3.574668e-06"
       inkscape:transform-center-y="-6.1114141"
       transform="matrix(-0.04651929,-0.03687488,-0.15536929,0.19600523,984.79548,690.90521)"
       clip-path="url(#clipPath886)" />
    <path
       inkscape:export-ydpi="9.6000004"
       inkscape:export-xdpi="9.6000004"
       inkscape:export-filename="C:\Users\James McGauran\Desktop\path6642.png"
       transform="matrix(-0.04651929,-0.03687488,0.15536929,-0.19600523,978.04098,699.42622)"
       inkscape:transform-center-y="6.1114128"
       inkscape:transform-center-x="3.574668e-06"
       d="m 711.61056,-105.41924 -90.77947,0 45.38974,-78.61732 z"
       inkscape:randomized="0"
       inkscape:rounded="0"
       inkscape:flatsided="true"
       sodipodi:arg2="1.5707963"
       sodipodi:arg1="0.52359878"
       sodipodi:r2="26.205772"
       sodipodi:r1="52.411549"
       sodipodi:cy="-131.62502"
       sodipodi:cx="666.22083"
       sodipodi:sides="3"
       id="path982"
       style="opacity:1;fill:#000000;fill-opacity:0.9948454;stroke:#000000;stroke-width:43.42796707;stroke-linecap:round;stroke-linejoin:round;stroke-miterlimit:4;stroke-dasharray:none;stroke-opacity:1"
       sodipodi:type="star"
       clip-path="url(#clipPath882)" />
    <path
       style="fill:#000000;fill-rule:evenodd;stroke-width:0.72613299"
       d="M 4260.7773 1880.2852 L 4202.6973 1892.6211 L 3738.9297 1991.1309 L 3738.9297 2040.3027 L 3738.9297 2544.7461 L 3766.0215 2541.2344 L 3770.0312 2541.6445 L 3766.625 2545.2188 C 3766.625 2545.2187 3769.1884 2544.9102 3769.3652 2544.9102 C 3769.542 2544.9102 3773.3877 2544.9542 3774.2715 2544.998 C 3775.1554 2545.0423 3776.7447 2545.2189 3777.1426 2545.3516 C 3777.5403 2545.4841 3783.6836 2547.959 3783.6836 2547.959 L 3797.0098 2562.543 L 3797.0098 2544.4043 L 3797.0098 2094.3633 C 3921.9908 2099.9966 4047.788 2103.2374 4202.6973 2021.2129 L 4202.6973 2435.0996 L 4224.2207 2432.2207 L 4223.5488 2441.8047 L 4238.9277 2442.6875 L 4260.7773 2458.5977 L 4260.7773 2434.748 L 4260.7773 1987.2285 L 4260.7773 1880.2852 z "
       transform="scale(0.26458333)"
       id="path1012"
       inkscape:export-filename="C:\Users\James McGauran\Desktop\path6642.png"
       inkscape:export-xdpi="9.6000004"
       inkscape:export-ydpi="9.6000004"
       clip-path="url(#clipPath878)" />
    <path
       inkscape:connector-curvature="0"
       id="path1026"
       d="m 1070.3809,616.56106 c -5.8497,0 -11.1226,3.06733 -14.937,7.97921 -0.2253,0.29005 -0.4645,0.56232 -0.6792,0.86515 -10.796,11.00604 -21.098,17.56767 -30.7461,18.2424 9.8745,0.69056 20.4341,7.5479 31.507,19.02496 0.6732,0.69773 1.3477,1.40803 2.0246,2.13959 v -0.14299 c 3.5518,3.48794 8.0008,5.56362 12.8307,5.56362 4.8299,-10e-6 9.279,-2.07579 12.8309,-5.56389 v 0.14326 c 0.61,-0.65931 1.2178,-1.29629 1.8248,-1.92815 11.1456,-11.60177 21.7731,-18.5417 31.7068,-19.2364 -9.6483,-0.67475 -19.9507,-7.23654 -30.7469,-18.24295 -0.2812,-0.39647 -0.5902,-0.75815 -0.8893,-1.13257 -3.7974,-4.75446 -8.9837,-7.71124 -14.7263,-7.71124 z"
       style="opacity:1;fill:none;fill-opacity:0.82352941;stroke:#000000;stroke-width:5.29166651;stroke-linecap:round;stroke-linejoin:round;stroke-miterlimit:4;stroke-dasharray:none;stroke-opacity:1"
       inkscape:export-filename="C:\Users\James McGauran\Desktop\path6642.png"
       inkscape:export-xdpi="9.6000004"
       inkscape:export-ydpi="9.6000004"
       clip-path="url(#clipPath874)" />
    <path
       inkscape:connector-curvature="0"
       id="path1028"
       d="m 1055.4439,624.54027 c -0.1902,0.91318 -0.379,1.82856 -0.5418,2.77973 -0.2114,1.23535 -0.3995,2.50148 -0.5622,3.7948 -0.1628,1.29331 -0.3005,2.61393 -0.4118,3.95829 -0.1113,1.34436 -0.1963,2.71252 -0.2533,4.101 -0.057,1.38848 -0.086,2.79726 -0.086,4.22294 0,1.42568 0.029,2.83445 0.086,4.22293 0.057,1.38848 0.142,2.75665 0.2533,4.10101 0.1113,1.34436 0.249,2.66498 0.4118,3.95829 0.1627,1.29332 0.3508,2.55945 0.5622,3.7948 0.1873,1.09454 0.4001,2.1548 0.6235,3.19872 0.6732,0.69773 1.3477,1.40803 2.0246,2.13959 v -0.14299 c 3.5518,3.48794 8.0008,5.56362 12.8307,5.56362 4.8299,-10e-6 9.279,-2.07579 12.8309,-5.56389 v 0.14326 c 0.61,-0.65931 1.2178,-1.29629 1.8248,-1.92815 0.2407,-1.10917 0.465,-2.24328 0.6648,-3.41016 0.2114,-1.23535 0.3992,-2.50148 0.562,-3.7948 0.1627,-1.29331 0.3004,-2.61393 0.4117,-3.95829 0.1114,-1.34436 0.1963,-2.71253 0.2533,-4.10101 0.057,-1.38848 0.086,-2.79725 0.086,-4.22293 0,-1.42568 -0.029,-2.83446 -0.086,-4.22294 -0.057,-1.38848 -0.1419,-2.75664 -0.2533,-4.101 -0.1113,-1.34436 -0.249,-2.66498 -0.4117,-3.95829 -0.1628,-1.29332 -0.3506,-2.55945 -0.562,-3.7948 -0.1785,-1.04286 -0.3828,-2.05069 -0.5942,-3.0477 -3.7974,-4.75446 -8.9837,-7.71124 -14.7263,-7.71124 -5.8497,0 -11.1226,3.06733 -14.937,7.97921 z"
       style="opacity:1;fill:none;fill-opacity:0.82352941;stroke:#000000;stroke-width:5.29166651;stroke-linecap:round;stroke-linejoin:round;stroke-miterlimit:4;stroke-dasharray:none;stroke-opacity:1"
       inkscape:export-filename="C:\Users\James McGauran\Desktop\path6642.png"
       inkscape:export-xdpi="9.6000004"
       inkscape:export-ydpi="9.6000004"
       clip-path="url(#clipPath870)" />
    <path
       style="opacity:1;fill:#000000;fill-opacity:0.9948454;stroke:#000000;stroke-width:1.41882205;stroke-linecap:round;stroke-linejoin:round;stroke-miterlimit:4;stroke-dasharray:none;stroke-opacity:1"
       d="m 1078.3067,643.39702 c 0,11.21375 -3.584,20.30429 -8.005,20.30429 -4.421,0 -8.005,-9.09054 -8.005,-20.30429 0,-11.21375 3.584,-20.30428 8.005,-20.30428 4.421,0 8.005,9.09053 8.005,20.30428 z"
       id="path1030"
       inkscape:connector-curvature="0"
       sodipodi:nodetypes="sssss"
       inkscape:export-filename="C:\Users\James McGauran\Desktop\path6642.png"
       inkscape:export-xdpi="9.6000004"
       inkscape:export-ydpi="9.6000004"
       clip-path="url(#clipPath866)" />
    <path
       transform="matrix(0.05936161,0,0,0.2501153,1031.1952,637.96035)"
       inkscape:transform-center-y="-6.1114141"
       inkscape:transform-center-x="3.574668e-06"
       d="m 711.61056,-105.41924 -90.77947,0 45.38974,-78.61732 z"
       inkscape:randomized="0"
       inkscape:rounded="0"
       inkscape:flatsided="true"
       sodipodi:arg2="1.5707963"
       sodipodi:arg1="0.52359878"
       sodipodi:r2="26.205772"
       sodipodi:r1="52.411549"
       sodipodi:cy="-131.62502"
       sodipodi:cx="666.22083"
       sodipodi:sides="3"
       id="path1034"
       style="opacity:1;fill:#000000;fill-opacity:0.9948454;stroke:#000000;stroke-width:43.42796707;stroke-linecap:round;stroke-linejoin:round;stroke-miterlimit:4;stroke-dasharray:none;stroke-opacity:1"
       sodipodi:type="star"
       inkscape:export-filename="C:\Users\James McGauran\Desktop\path6642.png"
       inkscape:export-xdpi="9.6000004"
       inkscape:export-ydpi="9.6000004"
       clip-path="url(#clipPath862)" />
    <path
       sodipodi:type="star"
       style="opacity:1;fill:#000000;fill-opacity:0.9948454;stroke:#000000;stroke-width:43.42796707;stroke-linecap:round;stroke-linejoin:round;stroke-miterlimit:4;stroke-dasharray:none;stroke-opacity:1"
       id="path1036"
       sodipodi:sides="3"
       sodipodi:cx="666.22083"
       sodipodi:cy="-131.62502"
       sodipodi:r1="52.411549"
       sodipodi:r2="26.205772"
       sodipodi:arg1="0.52359878"
       sodipodi:arg2="1.5707963"
       inkscape:flatsided="true"
       inkscape:rounded="0"
       inkscape:randomized="0"
       d="m 711.61056,-105.41924 -90.77947,0 45.38974,-78.61732 z"
       inkscape:transform-center-x="3.574668e-06"
       inkscape:transform-center-y="6.1114128"
       transform="matrix(0.05936161,0,0,-0.2501153,1031.1952,648.83371)"
       inkscape:export-filename="C:\Users\James McGauran\Desktop\path6642.png"
       inkscape:export-xdpi="9.6000004"
       inkscape:export-ydpi="9.6000004"
       clip-path="url(#clipPath858)" />
    <path
       sodipodi:type="star"
       style="opacity:1;fill:#000000;fill-opacity:0.9948454;stroke:#000000;stroke-width:43.42796707;stroke-linecap:round;stroke-linejoin:round;stroke-miterlimit:4;stroke-dasharray:none;stroke-opacity:1"
       id="path1038"
       sodipodi:sides="3"
       sodipodi:cx="666.22083"
       sodipodi:cy="-131.62502"
       sodipodi:r1="52.411549"
       sodipodi:r2="26.205772"
       sodipodi:arg1="0.52359878"
       sodipodi:arg2="1.5707963"
       inkscape:flatsided="true"
       inkscape:rounded="0"
       inkscape:randomized="0"
       d="m 711.61056,-105.41924 -90.77947,0 45.38974,-78.61732 z"
       inkscape:transform-center-x="3.574668e-06"
       inkscape:transform-center-y="-6.1114141"
       transform="matrix(0.04651929,-0.03687488,0.15536929,0.19600523,1036.3738,663.70334)"
       inkscape:export-filename="C:\Users\James McGauran\Desktop\path6642.png"
       inkscape:export-xdpi="9.6000004"
       inkscape:export-ydpi="9.6000004"
       clip-path="url(#clipPath854)" />
    <path
       transform="matrix(0.04651929,-0.03687488,-0.15536929,-0.19600523,1043.1282,672.22435)"
       inkscape:transform-center-y="6.1114128"
       inkscape:transform-center-x="3.574668e-06"
       d="m 711.61056,-105.41924 -90.77947,0 45.38974,-78.61732 z"
       inkscape:randomized="0"
       inkscape:rounded="0"
       inkscape:flatsided="true"
       sodipodi:arg2="1.5707963"
       sodipodi:arg1="0.52359878"
       sodipodi:r2="26.205772"
       sodipodi:r1="52.411549"
       sodipodi:cy="-131.62502"
       sodipodi:cx="666.22083"
       sodipodi:sides="3"
       id="path1040"
       style="opacity:1;fill:#000000;fill-opacity:0.9948454;stroke:#000000;stroke-width:43.42796707;stroke-linecap:round;stroke-linejoin:round;stroke-miterlimit:4;stroke-dasharray:none;stroke-opacity:1"
       sodipodi:type="star"
       inkscape:export-filename="C:\Users\James McGauran\Desktop\path6642.png"
       inkscape:export-xdpi="9.6000004"
       inkscape:export-ydpi="9.6000004"
       clip-path="url(#clipPath850)" />
    <path
       transform="matrix(-0.04651929,-0.03687488,-0.15536929,0.19600523,1105.1125,663.70334)"
       inkscape:transform-center-y="-6.1114141"
       inkscape:transform-center-x="3.574668e-06"
       d="m 711.61056,-105.41924 -90.77947,0 45.38974,-78.61732 z"
       inkscape:randomized="0"
       inkscape:rounded="0"
       inkscape:flatsided="true"
       sodipodi:arg2="1.5707963"
       sodipodi:arg1="0.52359878"
       sodipodi:r2="26.205772"
       sodipodi:r1="52.411549"
       sodipodi:cy="-131.62502"
       sodipodi:cx="666.22083"
       sodipodi:sides="3"
       id="path1042"
       style="opacity:1;fill:#000000;fill-opacity:0.9948454;stroke:#000000;stroke-width:43.42796707;stroke-linecap:round;stroke-linejoin:round;stroke-miterlimit:4;stroke-dasharray:none;stroke-opacity:1"
       sodipodi:type="star"
       inkscape:export-filename="C:\Users\James McGauran\Desktop\path6642.png"
       inkscape:export-xdpi="9.6000004"
       inkscape:export-ydpi="9.6000004"
       clip-path="url(#clipPath846)" />
    <path
       sodipodi:type="star"
       style="opacity:1;fill:#000000;fill-opacity:0.9948454;stroke:#000000;stroke-width:43.42796707;stroke-linecap:round;stroke-linejoin:round;stroke-miterlimit:4;stroke-dasharray:none;stroke-opacity:1"
       id="path1044"
       sodipodi:sides="3"
       sodipodi:cx="666.22083"
       sodipodi:cy="-131.62502"
       sodipodi:r1="52.411549"
       sodipodi:r2="26.205772"
       sodipodi:arg1="0.52359878"
       sodipodi:arg2="1.5707963"
       inkscape:flatsided="true"
       inkscape:rounded="0"
       inkscape:randomized="0"
       d="m 711.61056,-105.41924 -90.77947,0 45.38974,-78.61732 z"
       inkscape:transform-center-x="3.574668e-06"
       inkscape:transform-center-y="6.1114128"
       transform="matrix(-0.04651929,-0.03687488,0.15536929,-0.19600523,1098.358,672.22435)"
       inkscape:export-filename="C:\Users\James McGauran\Desktop\path6642.png"
       inkscape:export-xdpi="9.6000004"
       inkscape:export-ydpi="9.6000004"
       clip-path="url(#clipPath842)" />
  </g>
</svg>
